<?xml version="1.0" encoding="UTF-8" standalone="no"?>
<svg width="18px" height="18px" viewBox="0 0 18 18" version="1.1" xmlns="http://www.w3.org/2000/svg" xmlns:xlink="http://www.w3.org/1999/xlink">
    <g id="Google-Button" stroke="none" stroke-width="1" fill="none" fill-rule="evenodd">
        <g id="logo_googleg_48dp" transform="translate(-15.000000, -15.000000)">
            <path d="M31.64,23.205 C31.64,22.566 31.5827,21.9493 31.4773,21.355 L24,21.355 L24,24.845 L28.3591,24.845 C28.1545,25.97 27.5455,26.9232 26.6,27.5614 L26.6,29.8195 L29.2182,29.8195 C30.9818,28.2 32,25.9 32,23.205 L31.64,23.205 Z" id="Shape" fill="#4285F4"></path>
            <path d="M24,32 C26.295,32 28.2364,31.1941 29.6591,29.8195 L27.0409,27.5614 C26.2955,28.0719 25.3045,28.3705 24,28.3705 C21.6591,28.3705 19.6955,26.8028 18.9636,24.71 L16.2773,24.71 L16.2773,27.0418 C17.6955,29.9832 20.6,32 24,32 Z" id="Shape" fill="#34A853"></path>
            <path d="M18.9636,24.71 C18.7845,24.17 18.6818,23.5923 18.6818,23 C18.6818,22.4077 18.7845,21.83 18.9636,21.29 L18.9636,18.9582 L16.2773,18.9582 C15.7818,20.1732 15.5,21.5468 15.5,23 C15.5,24.4532 15.7818,25.8268 16.2773,27.0418 L18.9636,24.71 Z" id="Shape" fill="#FBBC05"></path>
            <path d="M24,17.6295 C25.3214,17.6295 26.5077,18.0887 27.4382,18.9677 L29.7618,16.6441 C28.2559,15.2486 26.3,14.5 24,14.5 C20.6,14.5 17.6955,16.5168 16.2773,19.4582 L18.9636,21.79 C19.6955,19.6973 21.6591,17.6295 24,17.6295 Z" id="Shape" fill="#EA4335"></path>
            <polygon id="Shape" points="15.5 15.5 32.5 15.5 32.5 32.5 15.5 32.5"></polygon>
        </g>
    </g>
</svg>
